<mxfile host="app.diagrams.net" modified="2022-09-04T22:29:50.273Z" agent="5.0 (Windows)" etag="NBr_71w-xEtAyLIsp2Te" version="20.2.4" type="github">
  <diagram id="ohNdlw7bwoGkjWh1BXIm" name="Page-1">
    <mxGraphModel dx="1888" dy="536" grid="1" gridSize="10" guides="1" tooltips="1" connect="1" arrows="1" fold="1" page="1" pageScale="1" pageWidth="850" pageHeight="1100" math="0" shadow="0">
      <root>
        <mxCell id="0" />
        <mxCell id="1" parent="0" />
        <mxCell id="70P-MDVzB9mslOVrGpy1-1" value="User" style="swimlane;fontStyle=1;align=center;verticalAlign=top;childLayout=stackLayout;horizontal=1;startSize=26;horizontalStack=0;resizeParent=1;resizeParentMax=0;resizeLast=0;collapsible=1;marginBottom=0;strokeWidth=2;fillColor=#f8cecc;strokeColor=#b85450;" parent="1" vertex="1">
          <mxGeometry x="360" y="50" width="250" height="400" as="geometry">
            <mxRectangle x="110" y="80" width="80" height="26" as="alternateBounds" />
          </mxGeometry>
        </mxCell>
        <mxCell id="70P-MDVzB9mslOVrGpy1-2" value="- id: int" style="text;strokeColor=none;fillColor=none;align=left;verticalAlign=top;spacingLeft=4;spacingRight=4;overflow=hidden;rotatable=0;points=[[0,0.5],[1,0.5]];portConstraint=eastwest;" parent="70P-MDVzB9mslOVrGpy1-1" vertex="1">
          <mxGeometry y="26" width="250" height="26" as="geometry" />
        </mxCell>
        <mxCell id="70P-MDVzB9mslOVrGpy1-3" value="- name: Char(100)" style="text;strokeColor=none;fillColor=none;align=left;verticalAlign=top;spacingLeft=4;spacingRight=4;overflow=hidden;rotatable=0;points=[[0,0.5],[1,0.5]];portConstraint=eastwest;" parent="70P-MDVzB9mslOVrGpy1-1" vertex="1">
          <mxGeometry y="52" width="250" height="26" as="geometry" />
        </mxCell>
        <mxCell id="70P-MDVzB9mslOVrGpy1-4" value="- gender: Char(10)" style="text;strokeColor=none;fillColor=none;align=left;verticalAlign=top;spacingLeft=4;spacingRight=4;overflow=hidden;rotatable=0;points=[[0,0.5],[1,0.5]];portConstraint=eastwest;" parent="70P-MDVzB9mslOVrGpy1-1" vertex="1">
          <mxGeometry y="78" width="250" height="26" as="geometry" />
        </mxCell>
        <mxCell id="70P-MDVzB9mslOVrGpy1-5" value="- Birthday: Date" style="text;strokeColor=none;fillColor=none;align=left;verticalAlign=top;spacingLeft=4;spacingRight=4;overflow=hidden;rotatable=0;points=[[0,0.5],[1,0.5]];portConstraint=eastwest;" parent="70P-MDVzB9mslOVrGpy1-1" vertex="1">
          <mxGeometry y="104" width="250" height="26" as="geometry" />
        </mxCell>
        <mxCell id="70P-MDVzB9mslOVrGpy1-6" value="- role: Char(10)" style="text;strokeColor=none;fillColor=none;align=left;verticalAlign=top;spacingLeft=4;spacingRight=4;overflow=hidden;rotatable=0;points=[[0,0.5],[1,0.5]];portConstraint=eastwest;" parent="70P-MDVzB9mslOVrGpy1-1" vertex="1">
          <mxGeometry y="130" width="250" height="26" as="geometry" />
        </mxCell>
        <mxCell id="70P-MDVzB9mslOVrGpy1-7" value="- phone: Char(15)" style="text;strokeColor=none;fillColor=none;align=left;verticalAlign=top;spacingLeft=4;spacingRight=4;overflow=hidden;rotatable=0;points=[[0,0.5],[1,0.5]];portConstraint=eastwest;" parent="70P-MDVzB9mslOVrGpy1-1" vertex="1">
          <mxGeometry y="156" width="250" height="26" as="geometry" />
        </mxCell>
        <mxCell id="70P-MDVzB9mslOVrGpy1-8" value="+ email: email" style="text;strokeColor=none;fillColor=none;align=left;verticalAlign=top;spacingLeft=4;spacingRight=4;overflow=hidden;rotatable=0;points=[[0,0.5],[1,0.5]];portConstraint=eastwest;" parent="70P-MDVzB9mslOVrGpy1-1" vertex="1">
          <mxGeometry y="182" width="250" height="26" as="geometry" />
        </mxCell>
        <mxCell id="70P-MDVzB9mslOVrGpy1-9" value="+ address: Char(100)" style="text;strokeColor=none;fillColor=none;align=left;verticalAlign=top;spacingLeft=4;spacingRight=4;overflow=hidden;rotatable=0;points=[[0,0.5],[1,0.5]];portConstraint=eastwest;" parent="70P-MDVzB9mslOVrGpy1-1" vertex="1">
          <mxGeometry y="208" width="250" height="26" as="geometry" />
        </mxCell>
        <mxCell id="70P-MDVzB9mslOVrGpy1-10" value="+ nationality: Char(100)" style="text;strokeColor=none;fillColor=none;align=left;verticalAlign=top;spacingLeft=4;spacingRight=4;overflow=hidden;rotatable=0;points=[[0,0.5],[1,0.5]];portConstraint=eastwest;fontStyle=0" parent="70P-MDVzB9mslOVrGpy1-1" vertex="1">
          <mxGeometry y="234" width="250" height="26" as="geometry" />
        </mxCell>
        <mxCell id="70P-MDVzB9mslOVrGpy1-11" value="+ name_login: string" style="text;strokeColor=none;fillColor=none;align=left;verticalAlign=top;spacingLeft=4;spacingRight=4;overflow=hidden;rotatable=0;points=[[0,0.5],[1,0.5]];portConstraint=eastwest;" parent="70P-MDVzB9mslOVrGpy1-1" vertex="1">
          <mxGeometry y="260" width="250" height="26" as="geometry" />
        </mxCell>
        <mxCell id="70P-MDVzB9mslOVrGpy1-12" value="+ password_login: string" style="text;strokeColor=none;fillColor=none;align=left;verticalAlign=top;spacingLeft=4;spacingRight=4;overflow=hidden;rotatable=0;points=[[0,0.5],[1,0.5]];portConstraint=eastwest;" parent="70P-MDVzB9mslOVrGpy1-1" vertex="1">
          <mxGeometry y="286" width="250" height="26" as="geometry" />
        </mxCell>
        <mxCell id="70P-MDVzB9mslOVrGpy1-13" value="+ profile_image: image" style="text;strokeColor=none;fillColor=none;align=left;verticalAlign=top;spacingLeft=4;spacingRight=4;overflow=hidden;rotatable=0;points=[[0,0.5],[1,0.5]];portConstraint=eastwest;" parent="70P-MDVzB9mslOVrGpy1-1" vertex="1">
          <mxGeometry y="312" width="250" height="26" as="geometry" />
        </mxCell>
        <mxCell id="70P-MDVzB9mslOVrGpy1-14" value="" style="line;strokeWidth=1;fillColor=none;align=left;verticalAlign=middle;spacingTop=-1;spacingLeft=3;spacingRight=3;rotatable=0;labelPosition=right;points=[];portConstraint=eastwest;" parent="70P-MDVzB9mslOVrGpy1-1" vertex="1">
          <mxGeometry y="338" width="250" height="8" as="geometry" />
        </mxCell>
        <mxCell id="70P-MDVzB9mslOVrGpy1-15" value="+ Signup(): user" style="text;strokeColor=none;fillColor=none;align=left;verticalAlign=top;spacingLeft=4;spacingRight=4;overflow=hidden;rotatable=0;points=[[0,0.5],[1,0.5]];portConstraint=eastwest;" parent="70P-MDVzB9mslOVrGpy1-1" vertex="1">
          <mxGeometry y="346" width="250" height="26" as="geometry" />
        </mxCell>
        <mxCell id="70P-MDVzB9mslOVrGpy1-16" value="+ login(string username,string password): void&#xa;" style="text;strokeColor=none;fillColor=none;align=left;verticalAlign=top;spacingLeft=4;spacingRight=4;overflow=hidden;rotatable=0;points=[[0,0.5],[1,0.5]];portConstraint=eastwest;" parent="70P-MDVzB9mslOVrGpy1-1" vertex="1">
          <mxGeometry y="372" width="250" height="28" as="geometry" />
        </mxCell>
        <mxCell id="70P-MDVzB9mslOVrGpy1-20" value="Admin" style="swimlane;fontStyle=1;align=center;verticalAlign=top;childLayout=stackLayout;horizontal=1;startSize=26;horizontalStack=0;resizeParent=1;resizeParentMax=0;resizeLast=0;collapsible=1;marginBottom=0;strokeWidth=2;fillColor=#fff2cc;strokeColor=#d6b656;" parent="1" vertex="1">
          <mxGeometry x="-60" y="570" width="280" height="80" as="geometry">
            <mxRectangle x="110" y="80" width="80" height="26" as="alternateBounds" />
          </mxGeometry>
        </mxCell>
        <mxCell id="70P-MDVzB9mslOVrGpy1-21" value="+ Determine_roles(int id_user, string role): void" style="text;strokeColor=none;fillColor=none;align=left;verticalAlign=top;spacingLeft=4;spacingRight=4;overflow=hidden;rotatable=0;points=[[0,0.5],[1,0.5]];portConstraint=eastwest;" parent="70P-MDVzB9mslOVrGpy1-20" vertex="1">
          <mxGeometry y="26" width="280" height="26" as="geometry" />
        </mxCell>
        <mxCell id="70P-MDVzB9mslOVrGpy1-22" value="+ Accept_report(file file_name): boolean&#xa;" style="text;strokeColor=none;fillColor=none;align=left;verticalAlign=top;spacingLeft=4;spacingRight=4;overflow=hidden;rotatable=0;points=[[0,0.5],[1,0.5]];portConstraint=eastwest;" parent="70P-MDVzB9mslOVrGpy1-20" vertex="1">
          <mxGeometry y="52" width="280" height="28" as="geometry" />
        </mxCell>
        <mxCell id="70P-MDVzB9mslOVrGpy1-30" value="Form" style="swimlane;fontStyle=1;align=center;verticalAlign=top;childLayout=stackLayout;horizontal=1;startSize=26;horizontalStack=0;resizeParent=1;resizeParentMax=0;resizeLast=0;collapsible=1;marginBottom=0;strokeWidth=2;fillColor=#dae8fc;strokeColor=#6c8ebf;" parent="1" vertex="1">
          <mxGeometry x="360" y="906" width="160" height="104" as="geometry">
            <mxRectangle x="160" y="1040" width="80" height="26" as="alternateBounds" />
          </mxGeometry>
        </mxCell>
        <mxCell id="70P-MDVzB9mslOVrGpy1-31" value="+ id: int" style="text;strokeColor=none;fillColor=none;align=left;verticalAlign=top;spacingLeft=4;spacingRight=4;overflow=hidden;rotatable=0;points=[[0,0.5],[1,0.5]];portConstraint=eastwest;" parent="70P-MDVzB9mslOVrGpy1-30" vertex="1">
          <mxGeometry y="26" width="160" height="26" as="geometry" />
        </mxCell>
        <mxCell id="70P-MDVzB9mslOVrGpy1-32" value="+ title: Char(50)" style="text;strokeColor=none;fillColor=none;align=left;verticalAlign=top;spacingLeft=4;spacingRight=4;overflow=hidden;rotatable=0;points=[[0,0.5],[1,0.5]];portConstraint=eastwest;" parent="70P-MDVzB9mslOVrGpy1-30" vertex="1">
          <mxGeometry y="52" width="160" height="26" as="geometry" />
        </mxCell>
        <mxCell id="70P-MDVzB9mslOVrGpy1-33" value="+ file: file" style="text;strokeColor=none;fillColor=none;align=left;verticalAlign=top;spacingLeft=4;spacingRight=4;overflow=hidden;rotatable=0;points=[[0,0.5],[1,0.5]];portConstraint=eastwest;" parent="70P-MDVzB9mslOVrGpy1-30" vertex="1">
          <mxGeometry y="78" width="160" height="26" as="geometry" />
        </mxCell>
        <mxCell id="70P-MDVzB9mslOVrGpy1-39" value="Lecturer" style="swimlane;fontStyle=1;align=center;verticalAlign=top;childLayout=stackLayout;horizontal=1;startSize=26;horizontalStack=0;resizeParent=1;resizeParentMax=0;resizeLast=0;collapsible=1;marginBottom=0;strokeWidth=2;fillColor=#fff2cc;strokeColor=#d6b656;" parent="1" vertex="1">
          <mxGeometry x="300" y="570" width="280" height="136" as="geometry">
            <mxRectangle x="110" y="80" width="80" height="26" as="alternateBounds" />
          </mxGeometry>
        </mxCell>
        <mxCell id="70P-MDVzB9mslOVrGpy1-40" value="+ Display_notifications(): void" style="text;strokeColor=none;fillColor=none;align=left;verticalAlign=top;spacingLeft=4;spacingRight=4;overflow=hidden;rotatable=0;points=[[0,0.5],[1,0.5]];portConstraint=eastwest;" parent="70P-MDVzB9mslOVrGpy1-39" vertex="1">
          <mxGeometry y="26" width="280" height="26" as="geometry" />
        </mxCell>
        <mxCell id="70P-MDVzB9mslOVrGpy1-43" value="+ View_forms(): void&#xa;" style="text;strokeColor=none;fillColor=none;align=left;verticalAlign=top;spacingLeft=4;spacingRight=4;overflow=hidden;rotatable=0;points=[[0,0.5],[1,0.5]];portConstraint=eastwest;" parent="70P-MDVzB9mslOVrGpy1-39" vertex="1">
          <mxGeometry y="52" width="280" height="28" as="geometry" />
        </mxCell>
        <mxCell id="70P-MDVzB9mslOVrGpy1-44" value="+ Download_forms(file file_name):file&#xa;" style="text;strokeColor=none;fillColor=none;align=left;verticalAlign=top;spacingLeft=4;spacingRight=4;overflow=hidden;rotatable=0;points=[[0,0.5],[1,0.5]];portConstraint=eastwest;" parent="70P-MDVzB9mslOVrGpy1-39" vertex="1">
          <mxGeometry y="80" width="280" height="28" as="geometry" />
        </mxCell>
        <mxCell id="70P-MDVzB9mslOVrGpy1-41" value="+ upload_file(file file_name): void&#xa;" style="text;strokeColor=none;fillColor=none;align=left;verticalAlign=top;spacingLeft=4;spacingRight=4;overflow=hidden;rotatable=0;points=[[0,0.5],[1,0.5]];portConstraint=eastwest;" parent="70P-MDVzB9mslOVrGpy1-39" vertex="1">
          <mxGeometry y="108" width="280" height="28" as="geometry" />
        </mxCell>
        <mxCell id="70P-MDVzB9mslOVrGpy1-45" value="Quality Assurance Officer" style="swimlane;fontStyle=1;align=center;verticalAlign=top;childLayout=stackLayout;horizontal=1;startSize=26;horizontalStack=0;resizeParent=1;resizeParentMax=0;resizeLast=0;collapsible=1;marginBottom=0;strokeWidth=2;fillColor=#fff2cc;strokeColor=#d6b656;" parent="1" vertex="1">
          <mxGeometry x="630" y="570" width="330" height="136" as="geometry">
            <mxRectangle x="110" y="80" width="80" height="26" as="alternateBounds" />
          </mxGeometry>
        </mxCell>
        <mxCell id="70P-MDVzB9mslOVrGpy1-51" value="+ Accept_report(file file_name): boolean&#xa;" style="text;strokeColor=none;fillColor=none;align=left;verticalAlign=top;spacingLeft=4;spacingRight=4;overflow=hidden;rotatable=0;points=[[0,0.5],[1,0.5]];portConstraint=eastwest;" parent="70P-MDVzB9mslOVrGpy1-45" vertex="1">
          <mxGeometry y="26" width="330" height="28" as="geometry" />
        </mxCell>
        <mxCell id="70P-MDVzB9mslOVrGpy1-52" value="+ Send_notifications(file file_name , int id_Lecturer ): void" style="text;strokeColor=none;fillColor=none;align=left;verticalAlign=top;spacingLeft=4;spacingRight=4;overflow=hidden;rotatable=0;points=[[0,0.5],[1,0.5]];portConstraint=eastwest;" parent="70P-MDVzB9mslOVrGpy1-45" vertex="1">
          <mxGeometry y="54" width="330" height="26" as="geometry" />
        </mxCell>
        <mxCell id="70P-MDVzB9mslOVrGpy1-47" value="+ View_forms(): void&#xa;" style="text;strokeColor=none;fillColor=none;align=left;verticalAlign=top;spacingLeft=4;spacingRight=4;overflow=hidden;rotatable=0;points=[[0,0.5],[1,0.5]];portConstraint=eastwest;" parent="70P-MDVzB9mslOVrGpy1-45" vertex="1">
          <mxGeometry y="80" width="330" height="28" as="geometry" />
        </mxCell>
        <mxCell id="70P-MDVzB9mslOVrGpy1-48" value="+ Download_forms(file file_name):file&#xa;" style="text;strokeColor=none;fillColor=none;align=left;verticalAlign=top;spacingLeft=4;spacingRight=4;overflow=hidden;rotatable=0;points=[[0,0.5],[1,0.5]];portConstraint=eastwest;" parent="70P-MDVzB9mslOVrGpy1-45" vertex="1">
          <mxGeometry y="108" width="330" height="28" as="geometry" />
        </mxCell>
        <mxCell id="70P-MDVzB9mslOVrGpy1-54" value="Course Coordinator" style="swimlane;fontStyle=1;align=center;verticalAlign=top;childLayout=stackLayout;horizontal=1;startSize=26;horizontalStack=0;resizeParent=1;resizeParentMax=0;resizeLast=0;collapsible=1;marginBottom=0;strokeWidth=2;fillColor=#fff2cc;strokeColor=#d6b656;" parent="1" vertex="1">
          <mxGeometry x="1000" y="570" width="220" height="54" as="geometry">
            <mxRectangle x="110" y="80" width="80" height="26" as="alternateBounds" />
          </mxGeometry>
        </mxCell>
        <mxCell id="70P-MDVzB9mslOVrGpy1-58" value="+ Upload_forms(file file_name):file&#xa;" style="text;strokeColor=none;fillColor=none;align=left;verticalAlign=top;spacingLeft=4;spacingRight=4;overflow=hidden;rotatable=0;points=[[0,0.5],[1,0.5]];portConstraint=eastwest;" parent="70P-MDVzB9mslOVrGpy1-54" vertex="1">
          <mxGeometry y="26" width="220" height="28" as="geometry" />
        </mxCell>
        <mxCell id="70P-MDVzB9mslOVrGpy1-60" value="Course" style="swimlane;fontStyle=1;align=center;verticalAlign=top;childLayout=stackLayout;horizontal=1;startSize=26;horizontalStack=0;resizeParent=1;resizeParentMax=0;resizeLast=0;collapsible=1;marginBottom=0;strokeWidth=2;fillColor=#60a917;strokeColor=#2D7600;fontColor=#ffffff;" parent="1" vertex="1">
          <mxGeometry x="790" y="880" width="160" height="156" as="geometry">
            <mxRectangle x="610" y="80" width="70" height="26" as="alternateBounds" />
          </mxGeometry>
        </mxCell>
        <mxCell id="70P-MDVzB9mslOVrGpy1-61" value="+ id: int" style="text;strokeColor=none;fillColor=none;align=left;verticalAlign=top;spacingLeft=4;spacingRight=4;overflow=hidden;rotatable=0;points=[[0,0.5],[1,0.5]];portConstraint=eastwest;" parent="70P-MDVzB9mslOVrGpy1-60" vertex="1">
          <mxGeometry y="26" width="160" height="26" as="geometry" />
        </mxCell>
        <mxCell id="70P-MDVzB9mslOVrGpy1-62" value="+ name: string" style="text;strokeColor=none;fillColor=none;align=left;verticalAlign=top;spacingLeft=4;spacingRight=4;overflow=hidden;rotatable=0;points=[[0,0.5],[1,0.5]];portConstraint=eastwest;" parent="70P-MDVzB9mslOVrGpy1-60" vertex="1">
          <mxGeometry y="52" width="160" height="26" as="geometry" />
        </mxCell>
        <mxCell id="70P-MDVzB9mslOVrGpy1-63" value="+ num_hours: int" style="text;strokeColor=none;fillColor=none;align=left;verticalAlign=top;spacingLeft=4;spacingRight=4;overflow=hidden;rotatable=0;points=[[0,0.5],[1,0.5]];portConstraint=eastwest;" parent="70P-MDVzB9mslOVrGpy1-60" vertex="1">
          <mxGeometry y="78" width="160" height="26" as="geometry" />
        </mxCell>
        <mxCell id="70P-MDVzB9mslOVrGpy1-64" value="+ id_branch: int" style="text;strokeColor=none;fillColor=none;align=left;verticalAlign=top;spacingLeft=4;spacingRight=4;overflow=hidden;rotatable=0;points=[[0,0.5],[1,0.5]];portConstraint=eastwest;fontStyle=0" parent="70P-MDVzB9mslOVrGpy1-60" vertex="1">
          <mxGeometry y="104" width="160" height="26" as="geometry" />
        </mxCell>
        <mxCell id="70P-MDVzB9mslOVrGpy1-65" value="+ id_precorse: int" style="text;strokeColor=none;fillColor=none;align=left;verticalAlign=top;spacingLeft=4;spacingRight=4;overflow=hidden;rotatable=0;points=[[0,0.5],[1,0.5]];portConstraint=eastwest;fontStyle=0" parent="70P-MDVzB9mslOVrGpy1-60" vertex="1">
          <mxGeometry y="130" width="160" height="26" as="geometry" />
        </mxCell>
        <mxCell id="70P-MDVzB9mslOVrGpy1-67" value="" style="endArrow=block;endSize=10;endFill=0;shadow=0;strokeWidth=1;rounded=0;edgeStyle=elbowEdgeStyle;elbow=vertical;exitX=0.457;exitY=0.013;exitDx=0;exitDy=0;exitPerimeter=0;" parent="1" source="70P-MDVzB9mslOVrGpy1-20" edge="1">
          <mxGeometry width="160" relative="1" as="geometry">
            <mxPoint x="120" y="560" as="sourcePoint" />
            <mxPoint x="479" y="453" as="targetPoint" />
          </mxGeometry>
        </mxCell>
        <mxCell id="70P-MDVzB9mslOVrGpy1-68" value="" style="endArrow=block;endSize=10;endFill=0;shadow=0;strokeWidth=1;rounded=0;edgeStyle=elbowEdgeStyle;elbow=vertical;exitX=0.639;exitY=0;exitDx=0;exitDy=0;exitPerimeter=0;" parent="1" source="70P-MDVzB9mslOVrGpy1-39" edge="1">
          <mxGeometry width="160" relative="1" as="geometry">
            <mxPoint x="589" y="555" as="sourcePoint" />
            <mxPoint x="479" y="453" as="targetPoint" />
          </mxGeometry>
        </mxCell>
        <mxCell id="70P-MDVzB9mslOVrGpy1-70" value="" style="endArrow=none;html=1;rounded=0;" parent="1" edge="1">
          <mxGeometry width="50" height="50" relative="1" as="geometry">
            <mxPoint x="1080" y="512" as="sourcePoint" />
            <mxPoint x="479" y="512" as="targetPoint" />
          </mxGeometry>
        </mxCell>
        <mxCell id="70P-MDVzB9mslOVrGpy1-71" value="" style="endArrow=none;html=1;rounded=0;exitX=0.521;exitY=-0.007;exitDx=0;exitDy=0;exitPerimeter=0;" parent="1" edge="1">
          <mxGeometry width="50" height="50" relative="1" as="geometry">
            <mxPoint x="799.9299999999998" y="569.048" as="sourcePoint" />
            <mxPoint x="800" y="510" as="targetPoint" />
          </mxGeometry>
        </mxCell>
        <mxCell id="70P-MDVzB9mslOVrGpy1-72" value="" style="endArrow=none;html=1;rounded=0;exitX=0.521;exitY=-0.007;exitDx=0;exitDy=0;exitPerimeter=0;" parent="1" edge="1">
          <mxGeometry width="50" height="50" relative="1" as="geometry">
            <mxPoint x="1078.9299999999998" y="571.048" as="sourcePoint" />
            <mxPoint x="1079" y="512" as="targetPoint" />
          </mxGeometry>
        </mxCell>
        <mxCell id="70P-MDVzB9mslOVrGpy1-73" value="" style="endArrow=diamondThin;endFill=1;endSize=24;html=1;rounded=0;entryX=0.031;entryY=-0.038;entryDx=0;entryDy=0;entryPerimeter=0;exitX=1.013;exitY=-0.077;exitDx=0;exitDy=0;exitPerimeter=0;" parent="1" edge="1">
          <mxGeometry width="160" relative="1" as="geometry">
            <mxPoint x="518.0799999999999" y="955.998" as="sourcePoint" />
            <mxPoint x="790.96" y="957.012" as="targetPoint" />
          </mxGeometry>
        </mxCell>
        <mxCell id="70P-MDVzB9mslOVrGpy1-74" value="1" style="text;html=1;strokeColor=none;fillColor=none;align=center;verticalAlign=middle;whiteSpace=wrap;rounded=0;" parent="1" vertex="1">
          <mxGeometry x="739" y="928" width="60" height="30" as="geometry" />
        </mxCell>
        <mxCell id="70P-MDVzB9mslOVrGpy1-77" value="1 ... *" style="text;html=1;strokeColor=none;fillColor=none;align=center;verticalAlign=middle;whiteSpace=wrap;rounded=0;" parent="1" vertex="1">
          <mxGeometry x="510" y="928" width="60" height="30" as="geometry" />
        </mxCell>
        <mxCell id="70P-MDVzB9mslOVrGpy1-79" value="" style="endArrow=diamondThin;endFill=1;endSize=24;html=1;rounded=0;entryX=0.607;entryY=1.071;entryDx=0;entryDy=0;exitX=0.25;exitY=0;exitDx=0;exitDy=0;entryPerimeter=0;" parent="1" source="70P-MDVzB9mslOVrGpy1-30" target="70P-MDVzB9mslOVrGpy1-22" edge="1">
          <mxGeometry width="160" relative="1" as="geometry">
            <mxPoint x="360" y="850" as="sourcePoint" />
            <mxPoint x="200" y="850" as="targetPoint" />
          </mxGeometry>
        </mxCell>
        <mxCell id="70P-MDVzB9mslOVrGpy1-80" value="" style="endArrow=diamondThin;endFill=1;endSize=24;html=1;rounded=0;entryX=0.607;entryY=1.071;entryDx=0;entryDy=0;entryPerimeter=0;" parent="1" source="70P-MDVzB9mslOVrGpy1-30" edge="1">
          <mxGeometry width="160" relative="1" as="geometry">
            <mxPoint x="665.04" y="960.01" as="sourcePoint" />
            <mxPoint x="425" y="705.998" as="targetPoint" />
          </mxGeometry>
        </mxCell>
        <mxCell id="70P-MDVzB9mslOVrGpy1-81" value="" style="endArrow=diamondThin;endFill=1;endSize=24;html=1;rounded=0;entryX=0.264;entryY=1.107;entryDx=0;entryDy=0;entryPerimeter=0;exitX=0.6;exitY=-0.01;exitDx=0;exitDy=0;exitPerimeter=0;" parent="1" source="70P-MDVzB9mslOVrGpy1-30" target="70P-MDVzB9mslOVrGpy1-48" edge="1">
          <mxGeometry width="160" relative="1" as="geometry">
            <mxPoint x="446.9047864699487" y="916" as="sourcePoint" />
            <mxPoint x="435" y="715.998" as="targetPoint" />
          </mxGeometry>
        </mxCell>
        <mxCell id="70P-MDVzB9mslOVrGpy1-82" value="" style="endArrow=diamondThin;endFill=1;endSize=24;html=1;rounded=0;entryX=0.75;entryY=1;entryDx=0;entryDy=0;exitX=1;exitY=0;exitDx=0;exitDy=0;" parent="1" source="70P-MDVzB9mslOVrGpy1-30" target="70P-MDVzB9mslOVrGpy1-54" edge="1">
          <mxGeometry width="160" relative="1" as="geometry">
            <mxPoint x="850" y="819.96" as="sourcePoint" />
            <mxPoint x="1111.12" y="623.9960000000001" as="targetPoint" />
          </mxGeometry>
        </mxCell>
        <mxCell id="70P-MDVzB9mslOVrGpy1-84" value="" style="endArrow=diamondThin;endFill=1;endSize=24;html=1;rounded=0;entryX=0.907;entryY=1.107;entryDx=0;entryDy=0;entryPerimeter=0;strokeColor=#FF3333;edgeStyle=orthogonalEdgeStyle;" parent="1" edge="1">
          <mxGeometry width="160" relative="1" as="geometry">
            <mxPoint x="1030" y="620" as="sourcePoint" />
            <mxPoint x="90.00000000000003" y="649.9960000000001" as="targetPoint" />
            <Array as="points">
              <mxPoint x="1030" y="830" />
              <mxPoint x="600" y="830" />
              <mxPoint x="600" y="800" />
              <mxPoint x="90" y="800" />
            </Array>
          </mxGeometry>
        </mxCell>
        <mxCell id="70P-MDVzB9mslOVrGpy1-85" value="" style="endArrow=diamondThin;endFill=1;endSize=24;html=1;rounded=0;entryX=0.907;entryY=1.107;entryDx=0;entryDy=0;entryPerimeter=0;strokeColor=#FF3333;edgeStyle=orthogonalEdgeStyle;" parent="1" edge="1">
          <mxGeometry width="160" relative="1" as="geometry">
            <mxPoint x="476" y="707" as="sourcePoint" />
            <mxPoint x="35.97" y="649.9960000000001" as="targetPoint" />
            <Array as="points">
              <mxPoint x="476" y="707" />
              <mxPoint x="476" y="820" />
              <mxPoint x="36" y="820" />
            </Array>
          </mxGeometry>
        </mxCell>
        <mxCell id="70P-MDVzB9mslOVrGpy1-86" value="" style="endArrow=diamondThin;endFill=1;endSize=24;html=1;rounded=0;entryX=0.907;entryY=1.107;entryDx=0;entryDy=0;entryPerimeter=0;strokeColor=#FF3333;edgeStyle=orthogonalEdgeStyle;" parent="1" edge="1">
          <mxGeometry width="160" relative="1" as="geometry">
            <mxPoint x="865" y="700" as="sourcePoint" />
            <mxPoint x="175" y="649.9960000000001" as="targetPoint" />
            <Array as="points">
              <mxPoint x="865" y="750" />
              <mxPoint x="685" y="750" />
              <mxPoint x="685" y="740" />
              <mxPoint x="175" y="740" />
            </Array>
          </mxGeometry>
        </mxCell>
        <mxCell id="Wyl1DsoUKBpnKgRFeLU--1" value="1" style="text;html=1;strokeColor=none;fillColor=none;align=center;verticalAlign=middle;whiteSpace=wrap;rounded=0;" vertex="1" parent="1">
          <mxGeometry x="-9" y="650" width="60" height="30" as="geometry" />
        </mxCell>
        <mxCell id="Wyl1DsoUKBpnKgRFeLU--2" value="1" style="text;html=1;strokeColor=none;fillColor=none;align=center;verticalAlign=middle;whiteSpace=wrap;rounded=0;" vertex="1" parent="1">
          <mxGeometry x="45" y="649" width="60" height="30" as="geometry" />
        </mxCell>
        <mxCell id="Wyl1DsoUKBpnKgRFeLU--4" value="1" style="text;html=1;strokeColor=none;fillColor=none;align=center;verticalAlign=middle;whiteSpace=wrap;rounded=0;" vertex="1" parent="1">
          <mxGeometry x="164" y="659" width="60" height="30" as="geometry" />
        </mxCell>
        <mxCell id="Wyl1DsoUKBpnKgRFeLU--5" value="0 ... *" style="text;html=1;strokeColor=none;fillColor=none;align=center;verticalAlign=middle;whiteSpace=wrap;rounded=0;" vertex="1" parent="1">
          <mxGeometry x="470" y="706" width="60" height="30" as="geometry" />
        </mxCell>
        <mxCell id="Wyl1DsoUKBpnKgRFeLU--6" value="0 ... *" style="text;html=1;strokeColor=none;fillColor=none;align=center;verticalAlign=middle;whiteSpace=wrap;rounded=0;" vertex="1" parent="1">
          <mxGeometry x="799" y="706" width="60" height="30" as="geometry" />
        </mxCell>
        <mxCell id="Wyl1DsoUKBpnKgRFeLU--7" value="1 ... *" style="text;html=1;strokeColor=none;fillColor=none;align=center;verticalAlign=middle;whiteSpace=wrap;rounded=0;" vertex="1" parent="1">
          <mxGeometry x="980" y="629" width="60" height="30" as="geometry" />
        </mxCell>
        <mxCell id="Wyl1DsoUKBpnKgRFeLU--8" value="1" style="text;html=1;strokeColor=none;fillColor=none;align=center;verticalAlign=middle;whiteSpace=wrap;rounded=0;" vertex="1" parent="1">
          <mxGeometry x="90" y="659" width="60" height="30" as="geometry" />
        </mxCell>
        <mxCell id="Wyl1DsoUKBpnKgRFeLU--9" value="0 ... *" style="text;html=1;strokeColor=none;fillColor=none;align=center;verticalAlign=middle;whiteSpace=wrap;rounded=0;" vertex="1" parent="1">
          <mxGeometry x="330" y="876" width="60" height="30" as="geometry" />
        </mxCell>
        <mxCell id="Wyl1DsoUKBpnKgRFeLU--10" value="1 ... *" style="text;html=1;strokeColor=none;fillColor=none;align=center;verticalAlign=middle;whiteSpace=wrap;rounded=0;" vertex="1" parent="1">
          <mxGeometry x="390" y="870" width="60" height="30" as="geometry" />
        </mxCell>
        <mxCell id="Wyl1DsoUKBpnKgRFeLU--11" value="1 ... *" style="text;html=1;strokeColor=none;fillColor=none;align=center;verticalAlign=middle;whiteSpace=wrap;rounded=0;" vertex="1" parent="1">
          <mxGeometry x="440" y="860" width="60" height="30" as="geometry" />
        </mxCell>
        <mxCell id="Wyl1DsoUKBpnKgRFeLU--12" value="1 ... *" style="text;html=1;strokeColor=none;fillColor=none;align=center;verticalAlign=middle;whiteSpace=wrap;rounded=0;" vertex="1" parent="1">
          <mxGeometry x="500" y="870" width="60" height="30" as="geometry" />
        </mxCell>
        <mxCell id="Wyl1DsoUKBpnKgRFeLU--13" value="1" style="text;html=1;strokeColor=none;fillColor=none;align=center;verticalAlign=middle;whiteSpace=wrap;rounded=0;" vertex="1" parent="1">
          <mxGeometry x="365" y="706" width="60" height="30" as="geometry" />
        </mxCell>
        <mxCell id="Wyl1DsoUKBpnKgRFeLU--14" value="1" style="text;html=1;strokeColor=none;fillColor=none;align=center;verticalAlign=middle;whiteSpace=wrap;rounded=0;" vertex="1" parent="1">
          <mxGeometry x="700" y="716" width="60" height="30" as="geometry" />
        </mxCell>
        <mxCell id="Wyl1DsoUKBpnKgRFeLU--15" value="1" style="text;html=1;strokeColor=none;fillColor=none;align=center;verticalAlign=middle;whiteSpace=wrap;rounded=0;" vertex="1" parent="1">
          <mxGeometry x="1110" y="640" width="60" height="30" as="geometry" />
        </mxCell>
      </root>
    </mxGraphModel>
  </diagram>
</mxfile>
